<svg width="38" height="21" viewBox="0 0 38 21" fill="none" xmlns="http://www.w3.org/2000/svg">
<path d="M10 0.876343C5.875 0.876343 2.5 3.88607 2.5 7.56463C2.5 9.77622 3.72125 11.7448 5.58625 12.9643C2.29 14.4224 0 17.4455 0 20.9412H2.5C2.5 17.2359 5.845 14.2529 10 14.2529C14.155 14.2529 17.5 17.2359 17.5 20.9412H20C20 17.2359 23.345 14.2529 27.5 14.2529C31.655 14.2529 35 17.2359 35 20.9412H37.5C37.5 17.4443 35.21 14.4224 31.9137 12.9643C32.8681 12.3441 33.645 11.532 34.1813 10.5937C34.7175 9.6555 34.998 8.6177 35 7.56463C35 3.88607 31.625 0.876343 27.5 0.876343C23.375 0.876343 20 3.88607 20 7.56463C20 9.77622 21.2213 11.7448 23.0863 12.9643C21.2599 13.7651 19.7482 15.0401 18.75 16.6217C17.7518 15.0401 16.2401 13.7651 14.4137 12.9643C15.3681 12.3441 16.145 11.532 16.6813 10.5937C17.2175 9.6555 17.498 8.6177 17.5 7.56463C17.5 3.88607 14.125 0.876343 10 0.876343ZM10 3.10577C12.7787 3.10577 15 5.08662 15 7.56463C15 10.0426 12.7787 12.0235 10 12.0235C7.22125 12.0235 5 10.0426 5 7.56463C5 5.08662 7.22125 3.10577 10 3.10577ZM27.5 3.10577C30.2787 3.10577 32.5 5.08662 32.5 7.56463C32.5 10.0426 30.2787 12.0235 27.5 12.0235C24.7213 12.0235 22.5 10.0426 22.5 7.56463C22.5 5.08662 24.7213 3.10577 27.5 3.10577Z" fill="#15487C"/>
</svg>
