<svg width="42" height="31" viewBox="0 0 42 31" fill="none" xmlns="http://www.w3.org/2000/svg">
<path d="M24.9591 19.0306C21.7815 18.1821 22.6861 17.5066 25.7186 16.5429C27.1713 16.0804 26.2879 15.1052 26.3276 14.325C26.3454 13.9678 28.0054 14.039 27.8849 12.6615C27.8001 11.6914 25.2739 10.3093 24.5855 9.71946C24.188 9.37913 25.3957 8.44785 24.5452 7.62885C23.384 6.50945 23.2006 4.5618 22.4979 3.4725C22.4979 3.4725 23.0337 2.78026 22.6231 2.38668C19.0815 -1.00449 5.8654 -0.693101 2.488 4.29787C-1.30338 9.90063 -1.35401 17.6444 6.52912 21.8163C10.0352 23.6714 5.5445 30.2407 5.5445 30.2407H19.4476C19.4476 29.119 17.8971 25.0952 20.6108 25.2758C22.9687 25.4327 25.8562 25.3464 25.6002 23.0937C25.5229 22.4142 25.4319 21.8024 25.993 21.2393C26.5541 20.6767 27.3663 19.673 24.9591 19.0306ZM28.1415 17.9731L41.0538 19.4039V16.5429L28.1415 17.9731ZM38.6316 27.3936L40.0165 24.9158L28.1415 19.4936L38.6316 27.3936ZM40.0165 11.005L38.6316 8.52656L28.1415 16.4277L40.0165 11.005Z" fill="#15487C"/>
</svg>
