<svg width="40" height="41" viewBox="0 0 40 41" fill="none" xmlns="http://www.w3.org/2000/svg">
<path d="M22.4138 18.6799C22.9598 18.8759 23.4914 19.0914 24.0086 19.3265C24.5259 19.5617 25.0287 19.8295 25.5172 20.1299C25.2011 20.4434 24.9138 20.77 24.6552 21.1096C24.3966 21.4493 24.1595 21.815 23.944 22.2069C22.8376 21.5538 21.6595 21.0574 20.4095 20.7178C19.1595 20.3781 17.8736 20.2083 16.5517 20.2083C15.2874 20.2083 14.0661 20.3585 12.8879 20.659C11.7098 20.9594 10.6106 21.3774 9.59052 21.913C8.5704 22.4486 7.64368 23.1018 6.81034 23.8725C5.97701 24.6432 5.25862 25.4923 4.65517 26.4198C4.05172 27.3473 3.58477 28.3466 3.25431 29.4177C2.92385 30.4889 2.75862 31.5993 2.75862 32.7488H0C0 31.1813 0.251437 29.6725 0.75431 28.2225C1.25718 26.7725 1.98276 25.4335 2.93103 24.2056C3.87931 22.9777 5 21.8869 6.2931 20.9333C7.58621 19.9797 9.05172 19.2286 10.6897 18.6799C9.06609 17.7132 7.80172 16.4984 6.89655 15.0353C5.99138 13.5723 5.53161 11.9524 5.51724 10.1759C5.51724 8.79118 5.8046 7.4914 6.37931 6.27654C6.95402 5.06167 7.73707 3.99704 8.72845 3.08262C9.71983 2.16821 10.8908 1.44974 12.2414 0.927216C13.592 0.404694 15.0287 0.143433 16.5517 0.143433C18.0747 0.143433 19.5043 0.404694 20.8405 0.927216C22.1767 1.44974 23.3477 2.16168 24.3534 3.06303C25.3592 3.96438 26.1494 5.02902 26.7241 6.25694C27.2989 7.48487 27.5862 8.79118 27.5862 10.1759C27.5862 11.038 27.4713 11.8806 27.2414 12.7036C27.0115 13.5265 26.6667 14.3038 26.2069 15.0353C25.7471 15.7669 25.2083 16.4396 24.5905 17.0536C23.9727 17.6675 23.2471 18.2096 22.4138 18.6799ZM8.27586 10.1759C8.27586 11.2209 8.49138 12.1941 8.92241 13.0955C9.35345 13.9968 9.94253 14.7937 10.6897 15.486C11.4368 16.1783 12.3132 16.7205 13.319 17.1123C14.3247 17.5042 15.4023 17.7002 16.5517 17.7002C17.6868 17.7002 18.7572 17.5042 19.7629 17.1123C20.7687 16.7205 21.6451 16.1849 22.3922 15.5056C23.1394 14.8263 23.7356 14.0295 24.181 13.1151C24.6264 12.2006 24.842 11.2209 24.8276 10.1759C24.8276 9.14388 24.6121 8.17068 24.181 7.25627C23.75 6.34185 23.1609 5.54501 22.4138 4.86573C21.6667 4.18645 20.783 3.64433 19.7629 3.23938C18.7428 2.83442 17.6724 2.63848 16.5517 2.65154C15.4023 2.65154 14.3319 2.84749 13.3405 3.23938C12.3491 3.63127 11.4727 4.16685 10.7112 4.84613C9.94971 5.52541 9.35345 6.32879 8.92241 7.25627C8.49138 8.18375 8.27586 9.15694 8.27586 10.1759ZM40 26.4786C40 27.1578 39.8851 27.8175 39.6552 28.4576C39.4253 29.0977 39.0805 29.6921 38.6207 30.2407V40.2732L33.1034 37.765L27.5862 40.2732V30.2407C27.1408 29.6921 26.8032 29.0977 26.5733 28.4576C26.3434 27.8175 26.2213 27.1578 26.2069 26.4786C26.2069 25.6164 26.3865 24.8065 26.7457 24.0488C27.1049 23.2912 27.5934 22.6315 28.2112 22.0698C28.829 21.5081 29.5618 21.0574 30.4095 20.7178C31.2572 20.3781 32.1552 20.2083 33.1034 20.2083C34.0517 20.2083 34.9425 20.3716 35.7759 20.6982C36.6092 21.0247 37.3348 21.4754 37.9526 22.0502C38.5704 22.625 39.0661 23.2912 39.4397 24.0488C39.8132 24.8065 40 25.6164 40 26.4786ZM33.1034 22.7164C32.5287 22.7164 31.9899 22.8144 31.4871 23.0103C30.9842 23.2063 30.546 23.4741 30.1724 23.8137C29.7989 24.1533 29.5043 24.5518 29.2888 25.009C29.0733 25.4662 28.9655 25.956 28.9655 26.4786C28.9655 27.0011 29.0733 27.4909 29.2888 27.9482C29.5043 28.4054 29.7989 28.8038 30.1724 29.1434C30.546 29.4831 30.9842 29.7509 31.4871 29.9468C31.9899 30.1427 32.5287 30.2407 33.1034 30.2407C33.6782 30.2407 34.217 30.1427 34.7198 29.9468C35.2227 29.7509 35.6609 29.4831 36.0345 29.1434C36.408 28.8038 36.7026 28.4054 36.9181 27.9482C37.1336 27.4909 37.2414 27.0011 37.2414 26.4786C37.2414 25.956 37.1336 25.4662 36.9181 25.009C36.7026 24.5518 36.408 24.1533 36.0345 23.8137C35.6609 23.4741 35.2227 23.2063 34.7198 23.0103C34.217 22.8144 33.6782 22.7164 33.1034 22.7164ZM35.8621 36.2171V32.2198C35 32.5725 34.0805 32.7488 33.1034 32.7488C32.1264 32.7488 31.2069 32.5725 30.3448 32.2198V36.2171C30.8046 36.0081 31.2644 35.8056 31.7241 35.6096C32.1839 35.4137 32.6437 35.1982 33.1034 34.963C33.5632 35.1851 34.023 35.3941 34.4828 35.59C34.9425 35.786 35.4023 35.995 35.8621 36.2171Z" fill="#15487C"/>
</svg>
