<svg width="40" height="26" viewBox="0 0 40 26" fill="none" xmlns="http://www.w3.org/2000/svg">
<path d="M23.6364 10.0864V7.42985C24.6364 7.06522 25.6594 6.79175 26.7055 6.60944C27.7503 6.42713 28.8485 6.33597 30 6.33597C30.7879 6.33597 31.5606 6.38806 32.3182 6.49224C33.0758 6.59642 33.8182 6.72664 34.5455 6.88291V9.3832C33.8182 9.1488 33.0836 8.97326 32.3418 8.85658C31.5988 8.73886 30.8182 8.68 30 8.68C28.8485 8.68 27.7424 8.80397 26.6818 9.05192C25.6212 9.29882 24.6061 9.64365 23.6364 10.0864ZM23.6364 18.6812V16.0246C24.6364 15.66 25.6594 15.3865 26.7055 15.2042C27.7503 15.0219 28.8485 14.9307 30 14.9307C30.7879 14.9307 31.5606 14.9828 32.3182 15.087C33.0758 15.1912 33.8182 15.3214 34.5455 15.4777V17.978C33.8182 17.7436 33.0836 17.568 32.3418 17.4513C31.5988 17.3336 30.8182 17.2748 30 17.2748C28.8485 17.2748 27.7424 17.392 26.6818 17.6264C25.6212 17.8608 24.6061 18.2124 23.6364 18.6812ZM23.6364 14.3838V11.7272C24.6364 11.3626 25.6594 11.0891 26.7055 10.9068C27.7503 10.7245 28.8485 10.6334 30 10.6334C30.7879 10.6334 31.5606 10.6854 32.3182 10.7896C33.0758 10.8938 33.8182 11.024 34.5455 11.1803V13.6806C33.8182 13.4462 33.0836 13.2706 32.3418 13.154C31.5988 13.0362 30.8182 12.9774 30 12.9774C28.8485 12.9774 27.7424 13.1014 26.6818 13.3493C25.6212 13.5962 24.6061 13.941 23.6364 14.3838ZM10 19.6188C11.4242 19.6188 12.8109 19.7553 14.16 20.0282C15.5079 20.3022 16.8485 20.7127 18.1818 21.2596V5.86717C16.9394 5.24209 15.6212 4.77329 14.2273 4.46075C12.8333 4.14821 11.4242 3.99195 10 3.99195C8.90909 3.99195 7.82606 4.0831 6.75091 4.26542C5.67455 4.44773 4.63636 4.7212 3.63636 5.08582V20.5564C4.69697 20.2439 5.7503 20.0095 6.79636 19.8532C7.84121 19.6969 8.90909 19.6188 10 19.6188ZM21.8182 21.2596C23.1515 20.7127 24.4927 20.3022 25.8418 20.0282C27.1897 19.7553 28.5758 19.6188 30 19.6188C31.0909 19.6188 32.1594 19.6969 33.2055 19.8532C34.2503 20.0095 35.303 20.2439 36.3636 20.5564V5.08582C35.3636 4.7212 34.3261 4.44773 33.2509 4.26542C32.1745 4.0831 31.0909 3.99195 30 3.99195C28.5758 3.99195 27.1667 4.14821 25.7727 4.46075C24.3788 4.77329 23.0606 5.24209 21.8182 5.86717V21.2596ZM20 25.8695C18.5455 24.8798 16.9697 24.1115 15.2727 23.5646C13.5758 23.0176 11.8182 22.7442 10 22.7442C8.39394 22.7442 6.71212 23.0046 4.95455 23.5255C3.19697 24.0464 1.54545 24.8538 0 25.9477V3.28874C1.33333 2.5074 2.90182 1.90837 4.70545 1.49165C6.50788 1.07494 8.27273 0.866577 10 0.866577C11.7576 0.866577 13.4776 1.06191 15.16 1.45258C16.8412 1.84325 18.4545 2.42926 20 3.2106C21.5455 2.42926 23.1594 1.84325 24.8418 1.45258C26.523 1.06191 28.2424 0.866577 30 0.866577C31.7273 0.866577 33.4927 1.07494 35.2964 1.49165C37.0988 1.90837 38.6667 2.5074 40 3.28874V25.9477C38.4848 24.8538 36.8412 24.0464 35.0691 23.5255C33.2958 23.0046 31.6061 22.7442 30 22.7442C28.1818 22.7442 26.4242 23.0176 24.7273 23.5646C23.0303 24.1115 21.4545 24.8798 20 25.8695Z" fill="#15487C"/>
</svg>
